<svg xmlns="http://www.w3.org/2000/svg" width="20.033" height="23.271" viewBox="0 0 20.033 23.271">
  <path id="A" d="M20.033-.654l-2.247.527L16.264-4.761l-9.1-.127L4.894,1.295,0-2.076l9.566-19.6,3.529-.3ZM14.261-10.816l-2.384-8.531L8.6-9.521ZM15.516-7,14.781-9.2,7.954-7.516,7.547-6.487ZM6.125-8.36l-.457-.584A25.361,25.361,0,0,0,4.043-5.732,28.292,28.292,0,0,0,2.825-2.177l1.168.5a20.865,20.865,0,0,1,.793-3.409A23.379,23.379,0,0,1,6.125-8.36Z" transform="translate(0 21.976)" fill="#fff"/>
</svg>
