<svg xmlns="http://www.w3.org/2000/svg" width="163.57" height="33.1" viewBox="0 0 163.57 33.1">
  <path id="Path_42" data-name="Path 42" d="M15.873-.54,10.609.4q.109-4.184.15-5.708T10.8-7.219a3.561,3.561,0,0,0-.41-1.907,1.38,1.38,0,0,0-1.244-.636,2.621,2.621,0,0,0-1.634.7A9.567,9.567,0,0,0,5.729-6.947L5.332.13,2.857.465,1.395-12.072l4.676-.984L5.865-9.119a7.815,7.815,0,0,1,2.146-2.044,4.509,4.509,0,0,1,2.379-.69,3.367,3.367,0,0,1,2.687,1.23,8.149,8.149,0,0,1,1.538,3.7ZM13.617-5.9a.9.9,0,0,0-.219-.649.875.875,0,0,0-.656-.226.9.9,0,0,0-.663.226.879.879,0,0,0-.226.649.919.919,0,0,0,.226.677A.9.9,0,0,0,12.742-5a.875.875,0,0,0,.656-.226A.937.937,0,0,0,13.617-5.9Zm.506,3.336a1.037,1.037,0,0,0-.342-.786,1.122,1.122,0,0,0-.793-.321,1.163,1.163,0,0,0-.854.28,1.122,1.122,0,0,0-.28.827,1.142,1.142,0,0,0,.28.841,1.163,1.163,0,0,0,.854.28,1.122,1.122,0,0,0,.793-.321A1.053,1.053,0,0,0,14.123-2.563Zm17.9-10.384-.1,1.162-1.586-.068-.137,1.135,1.6.137-.1,1.436-1.8-.205.027,1.162,1.641.273-.109,1.258-1.7-.137L29.7-5.551l1.668.219Q30.81,1.463,28.957,4.854t-5,3.391a5.167,5.167,0,0,1-2.074-.423,6.417,6.417,0,0,1-1.868-1.27A7.68,7.68,0,0,1,18.649,4.83a8.858,8.858,0,0,1-.862-2.062l.991-.636a7,7,0,0,0,.813,1.237,7.478,7.478,0,0,0,1,1,4.849,4.849,0,0,0,1.319.786,3.681,3.681,0,0,0,1.319.253,2.856,2.856,0,0,0,1.795-.595,4.521,4.521,0,0,0,1.3-1.8,9.991,9.991,0,0,0,.6-1.887,14.322,14.322,0,0,0,.3-2.3,5.327,5.327,0,0,1-1.487.67,6.272,6.272,0,0,1-1.678.219,6.082,6.082,0,0,1-4.414-1.8,5.9,5.9,0,0,1-1.841-4.375,5.884,5.884,0,0,1,1.841-4.361,6.082,6.082,0,0,1,4.414-1.8,6.208,6.208,0,0,1,1.966.308,6.271,6.271,0,0,1,1.734.9l.1-2.092ZM27.364-6.426A4.534,4.534,0,0,0,27.2-7.663a4.145,4.145,0,0,0-.506-1.114,2.52,2.52,0,0,0-.882-.861,2.3,2.3,0,0,0-1.142-.287,2.652,2.652,0,0,0-1.377.369,3.614,3.614,0,0,0-1.13,1.121,5.131,5.131,0,0,0-.671,1.4,5.235,5.235,0,0,0-.219,1.511,4.931,4.931,0,0,0,.157,1.265,3.605,3.605,0,0,0,.485,1.087,2.734,2.734,0,0,0,.9.875,2.258,2.258,0,0,0,1.135.287,2.662,2.662,0,0,0,1.377-.376,3.5,3.5,0,0,0,1.13-1.128,5.758,5.758,0,0,0,.671-1.395A4.93,4.93,0,0,0,27.364-6.426Zm-1.3.335a1.654,1.654,0,0,1-.5,1.2,1.652,1.652,0,0,1-1.224.506,1.574,1.574,0,0,1-1.176-.513,1.673,1.673,0,0,1-.492-1.2,1.606,1.606,0,0,1,.506-1.183,1.608,1.608,0,0,1,1.162-.5,1.689,1.689,0,0,1,1.21.492A1.589,1.589,0,0,1,26.065-6.091ZM42.246-23.406,39.457,0,35.123-.424l.212-1.244,1.682.232.068-2.5-1.914-.123.1-1.135,1.818.027.041-2.393-2-.082.144-1.012h1.887l.041-2.625-2.167-.137.144-1.367,2.051.369v-2.242l-2.051-.232.164-1.121,1.928-.041.027-2.365-2.235-.109.253-1.285,1.982.205.068-2.229-2.372-.178.185-1.395ZM59.452-7.335l-1.716.465q.041.26.068.554t.027.622a6.855,6.855,0,0,1-.068.971,7.174,7.174,0,0,1-.205.957l1.374.629-.7,1.206L57.153-2.7A6.049,6.049,0,0,1,55.811-.821,6.221,6.221,0,0,1,53.867.4L54.25,2.03,53,2.345,52.75.738q-.409.068-.716.1a4.85,4.85,0,0,1-.525.034A6.355,6.355,0,0,1,49.9.67,5.7,5.7,0,0,1,48.388.027L47.375,1.606,46.293.978,47.441-.668a5.786,5.786,0,0,1-.964-1.015,6.184,6.184,0,0,1-.7-1.22l-1.7.535-.245-1.166,1.552-.342a8.137,8.137,0,0,1-.178-.971,7.307,7.307,0,0,1-.055-.848,7.016,7.016,0,0,1,.048-.827,4.638,4.638,0,0,1,.157-.772l-1.524-.492.314-1.176,1.569.656a6.184,6.184,0,0,1,.853-1.518,6.056,6.056,0,0,1,1.236-1.2l-.916-1.436,1.054-.725.9,1.538a6.143,6.143,0,0,1,1.294-.451,6.211,6.211,0,0,1,1.376-.15,6.081,6.081,0,0,1,1.345.144,6.042,6.042,0,0,1,1.222.417L54.8-13l1.065.6-.738,1.326a6.512,6.512,0,0,1,1.382,1.354,7.488,7.488,0,0,1,.959,1.723l1.671-.738ZM54-5.694a7.174,7.174,0,0,0-.164-1.583A4.351,4.351,0,0,0,53.308-8.6a3.1,3.1,0,0,0-1.037-1.085,2.67,2.67,0,0,0-1.405-.362,2.71,2.71,0,0,0-1.4.362,2.927,2.927,0,0,0-1.041,1.1A4.688,4.688,0,0,0,47.9-7.257a6.834,6.834,0,0,0-.171,1.563A7.137,7.137,0,0,0,47.9-4.072a4.766,4.766,0,0,0,.514,1.321,2.876,2.876,0,0,0,1.041,1.1,2.771,2.771,0,0,0,1.411.356A2.8,2.8,0,0,0,52.3-1.655a2.777,2.777,0,0,0,1.023-1.1,5.24,5.24,0,0,0,.5-1.321A6.9,6.9,0,0,0,54-5.694Zm34.6,5.626L83.029.567l.109-6.882a5.531,5.531,0,0,0-.293-2.2,1.034,1.034,0,0,0-.962-.739,1.114,1.114,0,0,0-.805.485,6.346,6.346,0,0,0-.846,1.454,11.48,11.48,0,0,0-.512,1.324q-.211.669-.375,1.351Q79.276-5.215,79.2-5.8t-.144-1.154a8.134,8.134,0,0,0-.308-1.263,3.582,3.582,0,0,0-.445-.908,2.26,2.26,0,0,0-.835-.725,2.543,2.543,0,0,0-1.15-.246,2.387,2.387,0,0,0-1.7.725,5.862,5.862,0,0,0-1.3,2.174l.137,7.26L68.523-.28l1.668-13.228,2.857.451.137,2.8a6.221,6.221,0,0,1,1.729-1.565,3.751,3.751,0,0,1,1.907-.526,3.753,3.753,0,0,1,1.688.369,3.327,3.327,0,0,1,1.265,1.121,5.957,5.957,0,0,1,1.545-1.251,3.278,3.278,0,0,1,1.559-.417,2.938,2.938,0,0,1,1.613.472,4.7,4.7,0,0,1,1.354,1.4,8.075,8.075,0,0,1,.8,1.559,13.518,13.518,0,0,1,.567,1.873l-1.736.492.205,1.066,1.777-.369L87.6-4.854l-1.736.287.246,1.176,1.832-.3L88.156-2.5l-1.955.1.178,1.244,1.955-.205ZM81.054-2.085a1.741,1.741,0,0,1-.513,1.271,1.723,1.723,0,0,1-1.278.52,1.752,1.752,0,0,1-1.278-.52,1.718,1.718,0,0,1-.526-1.271,1.705,1.705,0,0,1,.526-1.27,1.761,1.761,0,0,1,1.278-.515,1.731,1.731,0,0,1,1.278.515A1.728,1.728,0,0,1,81.054-2.085Zm23.276.67-.014.738a22.067,22.067,0,0,1-4.19,1.434,18.334,18.334,0,0,1-4.095.473,8.958,8.958,0,0,1-2.051-.219A6.167,6.167,0,0,1,92.313.369a3.443,3.443,0,0,1-1.319-1.3,3.713,3.713,0,0,1-.444-1.846A4.193,4.193,0,0,1,92.417-6.1a16.607,16.607,0,0,1,5.576-2.529,2.446,2.446,0,0,0-1.019-1.326,3.375,3.375,0,0,0-1.825-.451,4.762,4.762,0,0,0-2.16.485A5.146,5.146,0,0,0,91.267-8.49l-.731-.7a7.637,7.637,0,0,1,2.844-2.654,8.352,8.352,0,0,1,3.951-.894,5.3,5.3,0,0,1,3.22,1.018,7.792,7.792,0,0,1,2.345,3.054,14.8,14.8,0,0,1,1.114,3.409A17.749,17.749,0,0,1,104.33-1.415ZM102.2-6.173a1.02,1.02,0,0,0-.239-.738.978.978,0,0,0-.731-.246,1.027,1.027,0,0,0-.745.246.986.986,0,0,0-.253.738.962.962,0,0,0,.253.731,1.046,1.046,0,0,0,.745.239,1,1,0,0,0,.731-.239A1,1,0,0,0,102.2-6.173ZM98.957-2.42q0-1.244-.115-2.461a22.637,22.637,0,0,0-.357-2.406,23.689,23.689,0,0,0-2.321.786,12.515,12.515,0,0,0-1.8.882l1.4,5.646A12.445,12.445,0,0,0,97.647-.1a3.721,3.721,0,0,0,1.269-.4q.027-.492.034-.971T98.957-2.42Zm3.808-.062a1.223,1.223,0,0,0-.362-.889,1.2,1.2,0,0,0-.9-.369,1.259,1.259,0,0,0-.9.355,1.188,1.188,0,0,0-.376.9,1.172,1.172,0,0,0,.376.889,1.259,1.259,0,0,0,.9.355,1.216,1.216,0,0,0,.9-.362A1.2,1.2,0,0,0,102.765-2.481ZM126.684-.068l-5.578.636.109-6.882a5.531,5.531,0,0,0-.293-2.2,1.034,1.034,0,0,0-.962-.739,1.114,1.114,0,0,0-.805.485,6.346,6.346,0,0,0-.846,1.454,11.48,11.48,0,0,0-.512,1.324q-.211.669-.375,1.351-.068-.573-.144-1.154t-.144-1.154a8.134,8.134,0,0,0-.308-1.263,3.582,3.582,0,0,0-.445-.908,2.26,2.26,0,0,0-.835-.725,2.543,2.543,0,0,0-1.15-.246,2.387,2.387,0,0,0-1.7.725,5.862,5.862,0,0,0-1.3,2.174l.137,7.26L106.6-.28l1.668-13.228,2.857.451.137,2.8a6.221,6.221,0,0,1,1.729-1.565,3.751,3.751,0,0,1,1.907-.526,3.753,3.753,0,0,1,1.688.369,3.327,3.327,0,0,1,1.265,1.121,5.957,5.957,0,0,1,1.545-1.251,3.278,3.278,0,0,1,1.559-.417,2.938,2.938,0,0,1,1.613.472,4.7,4.7,0,0,1,1.354,1.4,8.075,8.075,0,0,1,.8,1.559,13.518,13.518,0,0,1,.567,1.873l-1.736.492.205,1.066,1.777-.369.137,1.176-1.736.287.246,1.176,1.832-.3.219,1.189-1.955.1.178,1.244,1.955-.205ZM119.13-2.085a1.741,1.741,0,0,1-.513,1.271,1.723,1.723,0,0,1-1.278.52,1.752,1.752,0,0,1-1.278-.52,1.718,1.718,0,0,1-.526-1.271,1.705,1.705,0,0,1,.526-1.27,1.761,1.761,0,0,1,1.278-.515,1.731,1.731,0,0,1,1.278.515A1.728,1.728,0,0,1,119.13-2.085ZM149.051-.068l-5.578.636.109-6.882a5.531,5.531,0,0,0-.293-2.2,1.034,1.034,0,0,0-.962-.739,1.114,1.114,0,0,0-.805.485,6.346,6.346,0,0,0-.846,1.454,11.479,11.479,0,0,0-.512,1.324q-.211.669-.375,1.351-.068-.573-.144-1.154T139.5-6.949a8.135,8.135,0,0,0-.308-1.263,3.582,3.582,0,0,0-.445-.908,2.261,2.261,0,0,0-.835-.725,2.543,2.543,0,0,0-1.15-.246,2.387,2.387,0,0,0-1.7.725,5.862,5.862,0,0,0-1.3,2.174L133.9.068,128.967-.28l1.668-13.228,2.857.451.137,2.8a6.221,6.221,0,0,1,1.729-1.565,3.752,3.752,0,0,1,1.907-.526,3.753,3.753,0,0,1,1.688.369,3.327,3.327,0,0,1,1.265,1.121,5.958,5.958,0,0,1,1.545-1.251,3.278,3.278,0,0,1,1.559-.417,2.938,2.938,0,0,1,1.613.472,4.7,4.7,0,0,1,1.354,1.4,8.076,8.076,0,0,1,.8,1.559,13.518,13.518,0,0,1,.567,1.873l-1.736.492.205,1.066,1.777-.369.137,1.176-1.736.287.246,1.176,1.832-.3L148.6-2.5l-1.955.1.178,1.244,1.955-.205ZM141.5-2.085a1.741,1.741,0,0,1-.513,1.271,1.723,1.723,0,0,1-1.278.52,1.752,1.752,0,0,1-1.278-.52,1.718,1.718,0,0,1-.526-1.271,1.705,1.705,0,0,1,.526-1.27,1.761,1.761,0,0,1,1.278-.515,1.731,1.731,0,0,1,1.278.515A1.728,1.728,0,0,1,141.5-2.085Zm23.468-2.3q0,7.031-1.96,10.553a6.335,6.335,0,0,1-5.881,3.522,11.021,11.021,0,0,1-3.36-.49,8.612,8.612,0,0,1-2.785-1.485l.636-1.2a6.206,6.206,0,0,0,2.058,1.142,7.982,7.982,0,0,0,2.509.376,9.145,9.145,0,0,0,.95-.048,5.358,5.358,0,0,0,.9-.171q-.219.027-.431.041t-.431.014a5.872,5.872,0,0,1-1.969-.328,6.162,6.162,0,0,1-1.764-.984,4.956,4.956,0,0,1-1.326-1.552,4.344,4.344,0,0,1-.492-1.88,15.827,15.827,0,0,0,1.066,1.319,5.129,5.129,0,0,0,.971.854,4.645,4.645,0,0,0,1.306.595,5.66,5.66,0,0,0,1.538.2,3.883,3.883,0,0,0,3.557-2.563,20.27,20.27,0,0,0,1.468-7.69,9.77,9.77,0,0,1-.827,1.21,5.4,5.4,0,0,1-.854.854l.492,1.217-.834.711-.533-1.408a3.05,3.05,0,0,1-.909.273,3.91,3.91,0,0,1-1.032,0l-.4,1.531-1.258-.3.6-1.436a3.881,3.881,0,0,1-1.135-.6,4.259,4.259,0,0,1-.93-1l-1.176.9-.916-.972,1.613-.917a7.084,7.084,0,0,1-.362-1.074,7.545,7.545,0,0,1-.2-1.2l-1.326.493-.424-1.081,1.641-.479q-.014-.137-.027-.3t-.014-.328q0-.191.034-.566t.075-.935h-1.846l.137-1.3,1.818.273.137-1.105,2.3-.164a20.179,20.179,0,0,0-.431,2.109,12.842,12.842,0,0,0-.144,1.836,7.46,7.46,0,0,0,.178,1.684,5.086,5.086,0,0,0,.52,1.369,2.976,2.976,0,0,0,1.053,1.13,2.82,2.82,0,0,0,1.477.377,2.863,2.863,0,0,0,2.447-1.075,5.344,5.344,0,0,0,.807-3.225,11.867,11.867,0,0,0-.109-1.559,15.1,15.1,0,0,0-.342-1.736l3.691-.841q.219,2.035.335,3.886T164.965-4.382Z" transform="translate(-1.395 23.406)" fill="#fff"/>
</svg>
